<svg width="296" height="26" viewBox="0 0 296 26" fill="none" xmlns="http://www.w3.org/2000/svg">
<path d="M96.1401 13.9399C96.1801 13.6399 96.2001 13.3299 96.2001 12.9999C96.2001 12.6799 96.1801 12.3599 96.1301 12.0599L98.1601 10.4799C98.3401 10.3399 98.3901 10.0699 98.2801 9.8699L96.3601 6.5499C96.2401 6.3299 95.9901 6.2599 95.7701 6.3299L93.3801 7.2899C92.8801 6.9099 92.3501 6.5899 91.7601 6.3499L91.4001 3.8099C91.3601 3.5699 91.1601 3.3999 90.9201 3.3999H87.0801C86.8401 3.3999 86.6501 3.5699 86.6101 3.8099L86.2501 6.3499C85.6601 6.5899 85.1201 6.9199 84.6301 7.2899L82.2401 6.3299C82.0201 6.2499 81.7701 6.3299 81.6501 6.5499L79.7401 9.8699C79.6201 10.0799 79.6601 10.3399 79.8601 10.4799L81.8901 12.0599C81.8401 12.3599 81.8001 12.6899 81.8001 12.9999C81.8001 13.3099 81.8201 13.6399 81.8701 13.9399L79.8401 15.5199C79.6601 15.6599 79.6101 15.9299 79.7201 16.1299L81.6401 19.4499C81.7601 19.6699 82.0101 19.7399 82.2301 19.6699L84.6201 18.7099C85.1201 19.0899 85.6501 19.4099 86.2401 19.6499L86.6001 22.1899C86.6501 22.4299 86.8401 22.5999 87.0801 22.5999H90.9201C91.1601 22.5999 91.3601 22.4299 91.3901 22.1899L91.7501 19.6499C92.3401 19.4099 92.8801 19.0899 93.3701 18.7099L95.7601 19.6699C95.9801 19.7499 96.2301 19.6699 96.3501 19.4499L98.2701 16.1299C98.3901 15.9099 98.3401 15.6599 98.1501 15.5199L96.1401 13.9399ZM89.0001 16.5999C87.0201 16.5999 85.4001 14.9799 85.4001 12.9999C85.4001 11.0199 87.0201 9.3999 89.0001 9.3999C90.9801 9.3999 92.6001 11.0199 92.6001 12.9999C92.6001 14.9799 90.9801 16.5999 89.0001 16.5999Z" fill="#1A1B22"/>
<path d="M120.346 14.334H113.372V21H110.622V5.71H113.372V12.486H120.346V5.71H123.118V21H120.346V14.334ZM132.542 21C132.38 20.5453 132.278 19.9587 132.234 19.24C132.116 19.4747 131.955 19.7093 131.75 19.944C131.559 20.1787 131.317 20.3913 131.024 20.582C130.745 20.7727 130.408 20.9267 130.012 21.044C129.63 21.1613 129.176 21.22 128.648 21.22C128.149 21.22 127.687 21.154 127.262 21.022C126.851 20.9047 126.492 20.7213 126.184 20.472C125.876 20.208 125.634 19.878 125.458 19.482C125.282 19.086 125.194 18.624 125.194 18.096C125.194 16.9373 125.663 16.05 126.602 15.434C127.555 14.818 129.073 14.51 131.156 14.51H132.146V13.63C132.146 12.9113 131.962 12.3833 131.596 12.046C131.229 11.694 130.584 11.518 129.66 11.518C128.912 11.518 128.208 11.628 127.548 11.848C126.902 12.068 126.36 12.3467 125.92 12.684V10.88C126.257 10.5427 126.785 10.2567 127.504 10.022C128.222 9.78733 129.058 9.67 130.012 9.67C131.522 9.67 132.681 9.97067 133.488 10.572C134.309 11.1587 134.72 12.112 134.72 13.432V19.218C134.72 19.4673 134.727 19.7827 134.742 20.164C134.771 20.5307 134.808 20.8093 134.852 21H132.542ZM129.484 19.548C129.909 19.548 130.283 19.4747 130.606 19.328C130.943 19.1813 131.222 18.9907 131.442 18.756C131.676 18.5213 131.852 18.2647 131.97 17.986C132.087 17.6927 132.146 17.3993 132.146 17.106V15.852H131.266C130.591 15.852 130.026 15.896 129.572 15.984C129.117 16.0573 128.75 16.1747 128.472 16.336C128.208 16.4973 128.017 16.7027 127.9 16.952C127.797 17.2013 127.746 17.4947 127.746 17.832C127.746 18.4333 127.9 18.8733 128.208 19.152C128.53 19.416 128.956 19.548 129.484 19.548ZM142.215 21.22C141.32 21.22 140.514 21.0953 139.795 20.846C139.091 20.582 138.482 20.2007 137.969 19.702C137.47 19.2033 137.082 18.5947 136.803 17.876C136.539 17.1573 136.407 16.3433 136.407 15.434C136.407 14.5247 136.539 13.718 136.803 13.014C137.082 12.2953 137.478 11.6867 137.991 11.188C138.504 10.6893 139.12 10.3153 139.839 10.066C140.558 9.802 141.372 9.67 142.281 9.67C143.044 9.67 143.711 9.758 144.283 9.934C144.87 10.11 145.339 10.3373 145.691 10.616V12.398C144.782 11.8113 143.718 11.518 142.501 11.518C140.198 11.518 139.047 12.8233 139.047 15.434C139.047 18.0593 140.176 19.372 142.435 19.372C143.095 19.372 143.689 19.2913 144.217 19.13C144.76 18.9687 145.251 18.7487 145.691 18.47V20.252C145.324 20.5453 144.855 20.78 144.283 20.956C143.711 21.132 143.022 21.22 142.215 21.22ZM152.526 11.672V21H149.93V11.672H146.542V9.89H155.958V11.672H152.526ZM163.721 21.22C162.885 21.22 162.166 21.0367 161.565 20.67C160.978 20.3033 160.494 19.8047 160.113 19.174V25.048H157.539V9.89H159.827L160.047 11.87C160.414 11.1953 160.905 10.66 161.521 10.264C162.137 9.868 162.892 9.67 163.787 9.67C164.432 9.67 165.048 9.78733 165.635 10.022C166.222 10.2567 166.735 10.616 167.175 11.1C167.63 11.5693 167.989 12.1633 168.253 12.882C168.517 13.6007 168.649 14.4513 168.649 15.434C168.649 16.402 168.51 17.2527 168.231 17.986C167.967 18.7047 167.608 19.306 167.153 19.79C166.713 20.274 166.192 20.6333 165.591 20.868C165.004 21.1027 164.381 21.22 163.721 21.22ZM163.105 19.482C163.956 19.482 164.652 19.1593 165.195 18.514C165.738 17.8687 166.009 16.842 166.009 15.434C166.009 14.0407 165.738 13.0213 165.195 12.376C164.652 11.7307 163.956 11.408 163.105 11.408C162.68 11.408 162.284 11.4887 161.917 11.65C161.55 11.7967 161.228 12.0387 160.949 12.376C160.685 12.6987 160.472 13.1167 160.311 13.63C160.164 14.1287 160.091 14.73 160.091 15.434C160.091 16.1527 160.164 16.7687 160.311 17.282C160.472 17.7807 160.685 18.1987 160.949 18.536C161.228 18.8587 161.55 19.1007 161.917 19.262C162.284 19.4087 162.68 19.482 163.105 19.482ZM175.49 21.22C174.698 21.22 173.957 21.0953 173.268 20.846C172.593 20.582 171.999 20.208 171.486 19.724C170.987 19.2253 170.591 18.6167 170.298 17.898C170.019 17.1793 169.88 16.358 169.88 15.434C169.88 14.51 170.019 13.6887 170.298 12.97C170.591 12.2513 170.987 11.65 171.486 11.166C171.999 10.6673 172.593 10.2933 173.268 10.044C173.957 9.79467 174.698 9.67 175.49 9.67C176.282 9.67 177.022 9.79467 177.712 10.044C178.416 10.2933 179.017 10.6673 179.516 11.166C180.029 11.65 180.432 12.2513 180.726 12.97C181.019 13.6887 181.166 14.51 181.166 15.434C181.166 16.358 181.019 17.1793 180.726 17.898C180.432 18.6167 180.029 19.2253 179.516 19.724C179.017 20.208 178.423 20.582 177.734 20.846C177.044 21.0953 176.296 21.22 175.49 21.22ZM175.49 19.482C175.93 19.482 176.333 19.4087 176.7 19.262C177.081 19.1153 177.404 18.8807 177.668 18.558C177.946 18.2353 178.159 17.8173 178.306 17.304C178.467 16.7907 178.548 16.1673 178.548 15.434C178.548 14.7007 178.467 14.0773 178.306 13.564C178.159 13.0507 177.946 12.64 177.668 12.332C177.404 12.0093 177.081 11.7747 176.7 11.628C176.333 11.4813 175.93 11.408 175.49 11.408C175.064 11.408 174.668 11.4813 174.302 11.628C173.935 11.7747 173.62 12.0093 173.356 12.332C173.092 12.64 172.879 13.0507 172.718 13.564C172.571 14.0773 172.498 14.7007 172.498 15.434C172.498 16.1673 172.571 16.7907 172.718 17.304C172.879 17.8173 173.092 18.2353 173.356 18.558C173.62 18.8807 173.935 19.1153 174.302 19.262C174.668 19.4087 175.064 19.482 175.49 19.482ZM188.257 8.856C187.098 8.856 186.233 8.58467 185.661 8.042C185.104 7.48467 184.825 6.80267 184.825 5.996H187.025C187.025 6.50933 187.128 6.88333 187.333 7.118C187.553 7.338 187.861 7.448 188.257 7.448C188.638 7.448 188.939 7.338 189.159 7.118C189.379 6.88333 189.489 6.50933 189.489 5.996H191.645C191.645 6.80267 191.366 7.48467 190.809 8.042C190.252 8.58467 189.401 8.856 188.257 8.856ZM185.529 17.854L191.051 9.89H193.361V21H190.831V13.014L185.331 21H182.999V9.89H185.529V17.854ZM198.356 9.89V21H195.782V9.89H198.356ZM201.216 15.126L205.792 21H202.756L198.51 15.544L203.152 9.89H205.594L201.216 15.126ZM209.72 17.854L215.242 9.89H217.552V21H215.022V13.014L209.522 21H207.19V9.89H209.72V17.854Z" fill="#1A1B22"/>
</svg>
