<svg width="296" height="26" viewBox="0 0 296 26" fill="none" xmlns="http://www.w3.org/2000/svg">
<path d="M96.5 3H84.5C83.4 3 82.5 3.9 82.5 5V17C82.5 18.1 83.4 19 84.5 19H96.5C97.6 19 98.5 18.1 98.5 17V5C98.5 3.9 97.6 3 96.5 3ZM94.5 8H91.5V13.5C91.5 14.88 90.38 16 89 16C87.62 16 86.5 14.88 86.5 13.5C86.5 12.12 87.62 11 89 11C89.57 11 90.08 11.19 90.5 11.51V6H94.5V8ZM80.5 7H78.5V21C78.5 22.1 79.4 23 80.5 23H94.5V21H80.5V7Z" fill="#1A1B22"/>
<path d="M122.997 9.142L118.751 18.844H116.529L112.349 9.01V21H110.171V5.71H113.449L117.937 16.094L122.425 5.71H125.747V21H122.997V9.142ZM137.737 20.054C137.429 20.3033 136.945 20.56 136.285 20.824C135.639 21.088 134.811 21.22 133.799 21.22C131.789 21.22 130.279 20.7067 129.267 19.68C128.255 18.6387 127.749 17.2233 127.749 15.434C127.749 14.5393 127.881 13.74 128.145 13.036C128.423 12.3173 128.805 11.7087 129.289 11.21C129.773 10.7113 130.345 10.33 131.005 10.066C131.679 9.802 132.42 9.67 133.227 9.67C134.063 9.67 134.811 9.80933 135.471 10.088C136.131 10.352 136.673 10.7553 137.099 11.298C137.524 11.8407 137.817 12.508 137.979 13.3C138.14 14.092 138.14 15.016 137.979 16.072H130.345C130.447 17.1867 130.792 18.0153 131.379 18.558C131.98 19.1007 132.882 19.372 134.085 19.372C134.921 19.372 135.632 19.262 136.219 19.042C136.82 18.8073 137.326 18.558 137.737 18.294V20.054ZM133.205 11.298C132.427 11.298 131.782 11.5693 131.269 12.112C130.77 12.6547 130.469 13.4687 130.367 14.554H135.625C135.683 13.4393 135.485 12.618 135.031 12.09C134.576 11.562 133.967 11.298 133.205 11.298ZM140.583 18.008C140.876 17.2307 141.067 16.1747 141.155 14.84C141.243 13.5053 141.309 11.8553 141.353 9.89H149.603V19.306H151.275V24.498H149.383L148.943 21H141.023L140.583 24.498H138.691V19.306H139.725C140.077 19.0273 140.363 18.5947 140.583 18.008ZM142.607 18.47C142.534 18.6313 142.46 18.7853 142.387 18.932C142.328 19.064 142.262 19.1887 142.189 19.306H147.029V11.584H143.421C143.377 13.2267 143.296 14.6053 143.179 15.72C143.076 16.8347 142.886 17.7513 142.607 18.47ZM155.215 17.854L160.737 9.89H163.047V21H160.517V13.014L155.017 21H152.685V9.89H155.215V17.854ZM172.288 21C172.126 20.5453 172.024 19.9587 171.98 19.24C171.862 19.4747 171.701 19.7093 171.496 19.944C171.305 20.1787 171.063 20.3913 170.77 20.582C170.491 20.7727 170.154 20.9267 169.758 21.044C169.376 21.1613 168.922 21.22 168.394 21.22C167.895 21.22 167.433 21.154 167.008 21.022C166.597 20.9047 166.238 20.7213 165.93 20.472C165.622 20.208 165.38 19.878 165.204 19.482C165.028 19.086 164.94 18.624 164.94 18.096C164.94 16.9373 165.409 16.05 166.348 15.434C167.301 14.818 168.819 14.51 170.902 14.51H171.892V13.63C171.892 12.9113 171.708 12.3833 171.342 12.046C170.975 11.694 170.33 11.518 169.406 11.518C168.658 11.518 167.954 11.628 167.294 11.848C166.648 12.068 166.106 12.3467 165.666 12.684V10.88C166.003 10.5427 166.531 10.2567 167.25 10.022C167.968 9.78733 168.804 9.67 169.758 9.67C171.268 9.67 172.427 9.97067 173.234 10.572C174.055 11.1587 174.466 12.112 174.466 13.432V19.218C174.466 19.4673 174.473 19.7827 174.488 20.164C174.517 20.5307 174.554 20.8093 174.598 21H172.288ZM169.23 19.548C169.655 19.548 170.029 19.4747 170.352 19.328C170.689 19.1813 170.968 18.9907 171.188 18.756C171.422 18.5213 171.598 18.2647 171.716 17.986C171.833 17.6927 171.892 17.3993 171.892 17.106V15.852H171.012C170.337 15.852 169.772 15.896 169.318 15.984C168.863 16.0573 168.496 16.1747 168.218 16.336C167.954 16.4973 167.763 16.7027 167.646 16.952C167.543 17.2013 167.492 17.4947 167.492 17.832C167.492 18.4333 167.646 18.8733 167.954 19.152C168.276 19.416 168.702 19.548 169.23 19.548ZM181.638 11.672V21H179.042V11.672H175.654V9.89H185.07V11.672H181.638ZM195.766 20.054C195.458 20.3033 194.974 20.56 194.314 20.824C193.669 21.088 192.84 21.22 191.828 21.22C189.819 21.22 188.308 20.7067 187.296 19.68C186.284 18.6387 185.778 17.2233 185.778 15.434C185.778 14.5393 185.91 13.74 186.174 13.036C186.453 12.3173 186.834 11.7087 187.318 11.21C187.802 10.7113 188.374 10.33 189.034 10.066C189.709 9.802 190.449 9.67 191.256 9.67C192.092 9.67 192.84 9.80933 193.5 10.088C194.16 10.352 194.703 10.7553 195.128 11.298C195.553 11.8407 195.847 12.508 196.008 13.3C196.169 14.092 196.169 15.016 196.008 16.072H188.374C188.477 17.1867 188.821 18.0153 189.408 18.558C190.009 19.1007 190.911 19.372 192.114 19.372C192.95 19.372 193.661 19.262 194.248 19.042C194.849 18.8073 195.355 18.558 195.766 18.294V20.054ZM191.234 11.298C190.457 11.298 189.811 11.5693 189.298 12.112C188.799 12.6547 188.499 13.4687 188.396 14.554H193.654C193.713 13.4393 193.515 12.618 193.06 12.09C192.605 11.562 191.997 11.298 191.234 11.298ZM200.526 9.89V21H197.952V9.89H200.526ZM203.386 15.126L207.962 21H204.926L200.68 15.544L205.322 9.89H207.764L203.386 15.126ZM215.966 21C215.804 20.5453 215.702 19.9587 215.658 19.24C215.54 19.4747 215.379 19.7093 215.174 19.944C214.983 20.1787 214.741 20.3913 214.448 20.582C214.169 20.7727 213.832 20.9267 213.436 21.044C213.054 21.1613 212.6 21.22 212.072 21.22C211.573 21.22 211.111 21.154 210.686 21.022C210.275 20.9047 209.916 20.7213 209.608 20.472C209.3 20.208 209.058 19.878 208.882 19.482C208.706 19.086 208.618 18.624 208.618 18.096C208.618 16.9373 209.087 16.05 210.026 15.434C210.979 14.818 212.497 14.51 214.58 14.51H215.57V13.63C215.57 12.9113 215.386 12.3833 215.02 12.046C214.653 11.694 214.008 11.518 213.084 11.518C212.336 11.518 211.632 11.628 210.972 11.848C210.326 12.068 209.784 12.3467 209.344 12.684V10.88C209.681 10.5427 210.209 10.2567 210.928 10.022C211.646 9.78733 212.482 9.67 213.436 9.67C214.946 9.67 216.105 9.97067 216.912 10.572C217.733 11.1587 218.144 12.112 218.144 13.432V19.218C218.144 19.4673 218.151 19.7827 218.166 20.164C218.195 20.5307 218.232 20.8093 218.276 21H215.966ZM212.908 19.548C213.333 19.548 213.707 19.4747 214.03 19.328C214.367 19.1813 214.646 18.9907 214.866 18.756C215.1 18.5213 215.276 18.2647 215.394 17.986C215.511 17.6927 215.57 17.3993 215.57 17.106V15.852H214.69C214.015 15.852 213.45 15.896 212.996 15.984C212.541 16.0573 212.174 16.1747 211.896 16.336C211.632 16.4973 211.441 16.7027 211.324 16.952C211.221 17.2013 211.17 17.4947 211.17 17.832C211.17 18.4333 211.324 18.8733 211.632 19.152C211.954 19.416 212.38 19.548 212.908 19.548Z" fill="#1A1B22"/>
</svg>
