<svg width="296" height="26" viewBox="0 0 296 26" fill="none" xmlns="http://www.w3.org/2000/svg">
<path d="M117.579 15.9497H116.721L116.417 15.6564C117.481 14.418 118.122 12.8102 118.122 11.0612C118.122 7.16124 114.961 4 111.061 4C107.161 4 104 7.16124 104 11.0612C104 14.9611 107.161 18.1224 111.061 18.1224C112.81 18.1224 114.418 17.4814 115.656 16.4168L115.95 16.721V17.5792L121.381 23L123 21.3814L117.579 15.9497ZM111.061 15.9497C108.356 15.9497 106.173 13.7662 106.173 11.0612C106.173 8.3562 108.356 6.17267 111.061 6.17267C113.766 6.17267 115.95 8.3562 115.95 11.0612C115.95 13.7662 113.766 15.9497 111.061 15.9497Z" fill="#1A1B22"/>
<path d="M134.395 5.71H146.583V21H143.877V7.558H137.079V21H134.395V5.71ZM154.188 21.22C153.396 21.22 152.655 21.0953 151.966 20.846C151.291 20.582 150.697 20.208 150.184 19.724C149.685 19.2253 149.289 18.6167 148.996 17.898C148.717 17.1793 148.578 16.358 148.578 15.434C148.578 14.51 148.717 13.6887 148.996 12.97C149.289 12.2513 149.685 11.65 150.184 11.166C150.697 10.6673 151.291 10.2933 151.966 10.044C152.655 9.79467 153.396 9.67 154.188 9.67C154.98 9.67 155.721 9.79467 156.41 10.044C157.114 10.2933 157.715 10.6673 158.214 11.166C158.727 11.65 159.131 12.2513 159.424 12.97C159.717 13.6887 159.864 14.51 159.864 15.434C159.864 16.358 159.717 17.1793 159.424 17.898C159.131 18.6167 158.727 19.2253 158.214 19.724C157.715 20.208 157.121 20.582 156.432 20.846C155.743 21.0953 154.995 21.22 154.188 21.22ZM154.188 19.482C154.628 19.482 155.031 19.4087 155.398 19.262C155.779 19.1153 156.102 18.8807 156.366 18.558C156.645 18.2353 156.857 17.8173 157.004 17.304C157.165 16.7907 157.246 16.1673 157.246 15.434C157.246 14.7007 157.165 14.0773 157.004 13.564C156.857 13.0507 156.645 12.64 156.366 12.332C156.102 12.0093 155.779 11.7747 155.398 11.628C155.031 11.4813 154.628 11.408 154.188 11.408C153.763 11.408 153.367 11.4813 153 11.628C152.633 11.7747 152.318 12.0093 152.054 12.332C151.79 12.64 151.577 13.0507 151.416 13.564C151.269 14.0773 151.196 14.7007 151.196 15.434C151.196 16.1673 151.269 16.7907 151.416 17.304C151.577 17.8173 151.79 18.2353 152.054 18.558C152.318 18.8807 152.633 19.1153 153 19.262C153.367 19.4087 153.763 19.482 154.188 19.482ZM164.227 17.854L169.749 9.89H172.059V21H169.529V13.014L164.029 21H161.697V9.89H164.227V17.854ZM179.695 21.22C178.8 21.22 177.993 21.0953 177.275 20.846C176.571 20.582 175.962 20.2007 175.449 19.702C174.95 19.2033 174.561 18.5947 174.283 17.876C174.019 17.1573 173.887 16.3433 173.887 15.434C173.887 14.5247 174.019 13.718 174.283 13.014C174.561 12.2953 174.957 11.6867 175.471 11.188C175.984 10.6893 176.6 10.3153 177.319 10.066C178.037 9.802 178.851 9.67 179.761 9.67C180.523 9.67 181.191 9.758 181.763 9.934C182.349 10.11 182.819 10.3373 183.171 10.616V12.398C182.261 11.8113 181.198 11.518 179.981 11.518C177.678 11.518 176.527 12.8233 176.527 15.434C176.527 18.0593 177.656 19.372 179.915 19.372C180.575 19.372 181.169 19.2913 181.697 19.13C182.239 18.9687 182.731 18.7487 183.171 18.47V20.252C182.804 20.5453 182.335 20.78 181.763 20.956C181.191 21.132 180.501 21.22 179.695 21.22ZM187.367 9.89V21H184.793V9.89H187.367ZM190.227 15.126L194.803 21H191.767L187.521 15.544L192.163 9.89H194.605L190.227 15.126Z" fill="#1A1B22"/>
</svg>
